<svg width="22" height="22" viewBox="0 0 22 22" fill="none" xmlns="http://www.w3.org/2000/svg">
<path d="M0 11C0 17.0749 4.92514 22 11 22C17.0749 22 22 17.0749 22 11C22 4.92514 17.0749 0 11 0C4.92514 0 0 4.92514 0 11ZM13.3269 7.07913V14.9209C13.3268 15.0816 13.2809 15.2389 13.1947 15.3745C13.1084 15.51 12.9853 15.6183 12.8398 15.6864C12.6943 15.7546 12.5323 15.7799 12.373 15.7595C12.2136 15.739 12.0633 15.6736 11.9398 15.5708L7.22827 11.6505C7.13282 11.5711 7.05602 11.4716 7.00331 11.3592C6.9506 11.2468 6.92327 11.1242 6.92327 11C6.92327 10.8758 6.9506 10.7532 7.00331 10.6408C7.05602 10.5284 7.13282 10.4289 7.22827 10.3495L11.9398 6.42918C12.0633 6.32644 12.2136 6.261 12.373 6.24053C12.5323 6.22005 12.6943 6.24539 12.8398 6.31357C12.9853 6.38175 13.1084 6.48995 13.1947 6.62553C13.2809 6.7611 13.3268 6.91844 13.3269 7.07913Z" fill="#294391"/>
</svg>
