<svg width="24" height="24" viewBox="0 0 24 24" fill="none" xmlns="http://www.w3.org/2000/svg">
<g clip-path="url(#clip0_1_249)">
<path d="M3.64514 6.28082C3.64514 5.58561 3.92179 4.91888 4.41423 4.4273C4.90666 3.93571 5.57454 3.65954 6.27095 3.65954H7.4645C8.15783 3.65915 8.82286 3.38503 9.3145 2.89699L10.15 2.06295C10.394 1.81798 10.6841 1.62358 11.0037 1.49092C11.3232 1.35827 11.6659 1.28998 12.0119 1.28998C12.358 1.28998 12.7006 1.35827 13.0202 1.49092C13.3397 1.62358 13.6298 1.81798 13.8739 2.06295L14.7093 2.89699C15.201 3.38503 15.866 3.65915 16.5593 3.65954H17.7529C18.4493 3.65954 19.1172 3.93571 19.6096 4.4273C20.102 4.91888 20.3787 5.58561 20.3787 6.28082V7.47231C20.3791 8.16444 20.6537 8.82833 21.1426 9.31912L21.978 10.1532C22.2234 10.3968 22.4182 10.6864 22.5511 11.0054C22.6839 11.3243 22.7524 11.6664 22.7524 12.0119C22.7524 12.3574 22.6839 12.6994 22.5511 13.0184C22.4182 13.3374 22.2234 13.627 21.978 13.8706L21.1426 14.7046C20.6537 15.1954 20.3791 15.8593 20.3787 16.5515V17.7429C20.3787 18.4382 20.102 19.1049 19.6096 19.5965C19.1172 20.0881 18.4493 20.3642 17.7529 20.3642H16.5593C15.866 20.3646 15.201 20.6387 14.7093 21.1268L13.8739 21.9608C13.6298 22.2058 13.3397 22.4002 13.0202 22.5328C12.7006 22.6655 12.358 22.7338 12.0119 22.7338C11.6659 22.7338 11.3232 22.6655 11.0037 22.5328C10.6841 22.4002 10.394 22.2058 10.15 21.9608L9.3145 21.1268C8.82286 20.6387 8.15783 20.3646 7.4645 20.3642H6.27095C5.57454 20.3642 4.90666 20.0881 4.41423 19.5965C3.92179 19.1049 3.64514 18.4382 3.64514 17.7429V16.5515C3.64475 15.8593 3.37015 15.1954 2.88127 14.7046L2.04579 13.8706C1.8004 13.627 1.60566 13.3374 1.47278 13.0184C1.33989 12.6994 1.27148 12.3574 1.27148 12.0119C1.27148 11.6664 1.33989 11.3243 1.47278 11.0054C1.60566 10.6864 1.8004 10.3968 2.04579 10.1532L2.88127 9.31912C3.37015 8.82833 3.64475 8.16444 3.64514 7.47231V6.28082" stroke="#294391" stroke-width="1.7" stroke-linecap="round" stroke-linejoin="round"/>
<g clip-path="url(#clip1_1_249)">
<path d="M12.1488 12.197C12.204 12.4901 12.2317 12.7746 12.2317 13.0506C12.2317 13.4668 12.1658 13.8979 12.0342 14.3438C12.7222 14.692 13.1957 14.8661 13.4547 14.8661C14.1215 14.8661 14.4888 14.4945 14.5567 13.7513H15.3275C15.3063 14.6007 15.1173 15.2122 14.7606 15.5859C14.4081 15.9554 13.9643 16.1401 13.4292 16.1401C12.8941 16.1401 12.2741 15.8811 11.5692 15.363C11.1657 15.8811 10.7007 16.1401 10.1741 16.1401C9.84285 16.1401 9.55407 16.0361 9.30776 15.828C9.06145 15.6199 8.9383 15.3354 8.9383 14.9744C8.9383 14.588 9.06994 14.2822 9.33324 14.0571C9.60079 13.832 9.90443 13.7195 10.2442 13.7195C10.5202 13.7195 10.8323 13.7959 11.1806 13.9488C11.1891 13.8299 11.1933 13.7407 11.1933 13.6813C11.1933 13.2736 11.0872 12.7788 10.8748 12.197H8.93193V11.1714H10.4862C10.1507 10.3263 9.983 9.62987 9.983 9.08204C9.983 8.38982 10.2144 7.8696 10.6773 7.52136C11.1445 7.17313 11.6944 6.99901 12.3272 6.99901C12.9982 6.99901 13.5651 7.18375 14.028 7.55321C14.4952 7.92268 14.7287 8.49599 14.7287 9.27315C14.7287 9.32411 14.7266 9.39843 14.7224 9.4961H13.5057L13.5184 9.15211C13.5184 8.88032 13.4314 8.62339 13.2572 8.38133C13.0874 8.13926 12.7965 8.01823 12.3845 8.01823C11.6116 8.01823 11.2252 8.3601 11.2252 9.04382C11.2252 9.39206 11.4311 10.1013 11.8431 11.1714H13.4292V12.197H12.1488ZM10.9385 14.8852C10.5818 14.6177 10.2909 14.4839 10.0658 14.4839C9.93416 14.4839 9.81737 14.5285 9.71545 14.6177C9.61778 14.7026 9.56894 14.8194 9.56894 14.968C9.56894 15.2908 9.74518 15.4522 10.0977 15.4522C10.4077 15.4522 10.688 15.2632 10.9385 14.8852Z" fill="#294391"/>
</g>
</g>
<defs>
<clipPath id="clip0_1_249">
<rect width="24" height="24" fill="white"/>
</clipPath>
<clipPath id="clip1_1_249">
<rect width="15.4839" height="15.3191" fill="white" transform="translate(4.38708 3.82977)"/>
</clipPath>
</defs>
</svg>
