<svg width="24" height="23" viewBox="0 0 24 23" fill="none" xmlns="http://www.w3.org/2000/svg">
<g clip-path="url(#clip0_1_257)">
<path fill-rule="evenodd" clip-rule="evenodd" d="M0 21.75C0 21.5511 0.0790176 21.3603 0.21967 21.2197C0.360322 21.079 0.551088 21 0.75 21H23.25C23.4489 21 23.6397 21.079 23.7803 21.2197C23.921 21.3603 24 21.5511 24 21.75C24 21.9489 23.921 22.1397 23.7803 22.2803C23.6397 22.421 23.4489 22.5 23.25 22.5H0.75C0.551088 22.5 0.360322 22.421 0.21967 22.2803C0.0790176 22.1397 0 21.9489 0 21.75ZM4.68 0.2625C4.75041 0.180176 4.83783 0.114083 4.93623 0.0687683C5.03462 0.0234536 5.14167 -7.12549e-06 5.25 1.62337e-09H18.75C18.8583 -7.12549e-06 18.9654 0.0234536 19.0638 0.0687683C19.1622 0.114083 19.2496 0.180176 19.32 0.2625L23.4585 5.091C23.8079 5.49875 24 6.01802 24 6.555V6.75H22.5V6.555C22.5 6.37624 22.4362 6.20336 22.32 6.0675L18.405 1.5H5.595L1.68 6.0675C1.56382 6.20336 1.49999 6.37624 1.5 6.555V6.75H0V6.555C1.88896e-05 6.01802 0.192085 5.49875 0.5415 5.091L4.6815 0.261L4.68 0.2625Z" fill="#294391"/>
<path d="M3.5625 8.8125C4.7025 8.8125 5.625 7.8885 5.625 6.75H7.125C7.125 7.29701 7.3423 7.82161 7.72909 8.20841C8.11589 8.5952 8.64049 8.8125 9.1875 8.8125C9.73451 8.8125 10.2591 8.5952 10.6459 8.20841C11.0327 7.82161 11.25 7.29701 11.25 6.75H12.75C12.75 7.29701 12.9673 7.82161 13.3541 8.20841C13.7409 8.5952 14.2655 8.8125 14.8125 8.8125C15.3595 8.8125 15.8841 8.5952 16.2709 8.20841C16.6577 7.82161 16.875 7.29701 16.875 6.75H18.375C18.375 7.29701 18.5923 7.82161 18.9791 8.20841C19.3659 8.5952 19.8905 8.8125 20.4375 8.8125C20.9845 8.8125 21.5091 8.5952 21.8959 8.20841C22.2827 7.82161 22.5 7.29701 22.5 6.75H24C24.0001 7.49246 23.7682 8.2164 23.3367 8.82063C22.9053 9.42486 22.2958 9.87919 21.5935 10.1201C20.8912 10.361 20.1312 10.3765 19.4197 10.1644C18.7082 9.95228 18.0807 9.52316 17.625 8.937C17.2922 9.36565 16.8657 9.71246 16.3783 9.95088C15.8908 10.1893 15.3552 10.313 14.8125 10.3125C14.2698 10.3131 13.7342 10.1895 13.2467 9.95103C12.7592 9.71261 12.3327 9.36574 12 8.937C11.6673 9.36574 11.2408 9.71261 10.7533 9.95103C10.2658 10.1895 9.73019 10.3131 9.1875 10.3125C8.64481 10.3131 8.10919 10.1895 7.62168 9.95103C7.13416 9.71261 6.70771 9.36574 6.375 8.937C5.91929 9.52316 5.29182 9.95228 4.58031 10.1644C3.86879 10.3765 3.10877 10.361 2.40649 10.1201C1.7042 9.87919 1.09473 9.42486 0.663273 8.82063C0.231813 8.2164 -8.18979e-05 7.49246 2.16968e-08 6.75H1.5C1.5 7.89 2.424 8.8125 3.5625 8.8125Z" fill="#294391"/>
<path d="M7.125 6.75C7.125 6.94891 7.04598 7.13968 6.90533 7.28033C6.76468 7.42098 6.57391 7.5 6.375 7.5C6.17609 7.5 5.98532 7.42098 5.84467 7.28033C5.70402 7.13968 5.625 6.94891 5.625 6.75C5.625 6.55109 5.70402 6.36032 5.84467 6.21967C5.98532 6.07902 6.17609 6 6.375 6C6.57391 6 6.76468 6.07902 6.90533 6.21967C7.04598 6.36032 7.125 6.55109 7.125 6.75ZM12.75 6.75C12.75 6.94891 12.671 7.13968 12.5303 7.28033C12.3897 7.42098 12.1989 7.5 12 7.5C11.8011 7.5 11.6103 7.42098 11.4697 7.28033C11.329 7.13968 11.25 6.94891 11.25 6.75C11.25 6.55109 11.329 6.36032 11.4697 6.21967C11.6103 6.07902 11.8011 6 12 6C12.1989 6 12.3897 6.07902 12.5303 6.21967C12.671 6.36032 12.75 6.55109 12.75 6.75ZM18.375 6.75C18.375 6.94891 18.296 7.13968 18.1553 7.28033C18.0147 7.42098 17.8239 7.5 17.625 7.5C17.4261 7.5 17.2353 7.42098 17.0947 7.28033C16.954 7.13968 16.875 6.94891 16.875 6.75C16.875 6.55109 16.954 6.36032 17.0947 6.21967C17.2353 6.07902 17.4261 6 17.625 6C17.8239 6 18.0147 6.07902 18.1553 6.21967C18.296 6.36032 18.375 6.55109 18.375 6.75Z" fill="#294391"/>
<path fill-rule="evenodd" clip-rule="evenodd" d="M3 10.269V9H1.5V9.6555C1.9365 9.966 2.448 10.1805 3 10.269ZM1.5 11.3745C1.9665 11.5845 2.4705 11.7225 3 11.781V21H1.5V11.3745ZM21 11.781C21.518 11.7245 22.024 11.5879 22.5 11.376V21H21V11.781ZM22.5 9.6555C22.0635 9.966 21.552 10.1805 21 10.269V9H22.5V9.6555ZM4.5 12.75C4.5 12.5511 4.57902 12.3603 4.71967 12.2197C4.86032 12.079 5.05109 12 5.25 12H11.25C11.4489 12 11.6397 12.079 11.7803 12.2197C11.921 12.3603 12 12.5511 12 12.75V21H10.5V13.5H6V21H4.5V12.75ZM13.5 12.75C13.5 12.5511 13.579 12.3603 13.7197 12.2197C13.8603 12.079 14.0511 12 14.25 12H18.75C18.9489 12 19.1397 12.079 19.2803 12.2197C19.421 12.3603 19.5 12.5511 19.5 12.75V18.75C19.5 18.9489 19.421 19.1397 19.2803 19.2803C19.1397 19.421 18.9489 19.5 18.75 19.5H14.25C14.0511 19.5 13.8603 19.421 13.7197 19.2803C13.579 19.1397 13.5 18.9489 13.5 18.75V12.75ZM15 13.5V18H18V13.5H15Z" fill="#294391"/>
</g>
<defs>
<clipPath id="clip0_1_257">
<rect width="24" height="22.56" fill="white"/>
</clipPath>
</defs>
</svg>
