<svg width="22" height="23" viewBox="0 0 22 23" fill="none" xmlns="http://www.w3.org/2000/svg">
<g clip-path="url(#clip0_1_265)">
<path d="M20.883 18.6926C20.3438 17.4153 19.5612 16.2551 18.5789 15.2765C17.5997 14.2952 16.4396 13.5127 15.1628 12.9724C15.1514 12.9667 15.14 12.9639 15.1285 12.9581C16.9095 11.6717 18.0672 9.57635 18.0672 7.21223C18.0672 3.29586 14.8941 0.122742 10.9777 0.122742C7.06138 0.122742 3.88826 3.29586 3.88826 7.21223C3.88826 9.57635 5.04602 11.6717 6.82697 12.961C6.81553 12.9667 6.8041 12.9696 6.79266 12.9753C5.51198 13.5156 4.3628 14.2903 3.37656 15.2794C2.3952 16.2587 1.61277 17.4187 1.07247 18.6955C0.541682 19.9454 0.255415 21.2856 0.229167 22.6433C0.228404 22.6738 0.233755 22.7042 0.244906 22.7326C0.256057 22.761 0.272782 22.7869 0.294094 22.8087C0.315407 22.8306 0.340876 22.8479 0.369002 22.8598C0.397128 22.8716 0.427341 22.8777 0.45786 22.8777H2.17306C2.29884 22.8777 2.39889 22.7777 2.40175 22.6547C2.45893 20.4478 3.34511 18.381 4.91166 16.8145C6.53252 15.1936 8.6851 14.3017 10.9777 14.3017C13.2704 14.3017 15.423 15.1936 17.0438 16.8145C18.6104 18.381 19.4966 20.4478 19.5537 22.6547C19.5566 22.7805 19.6567 22.8777 19.7824 22.8777H21.4976C21.5282 22.8777 21.5584 22.8716 21.5865 22.8598C21.6146 22.8479 21.6401 22.8306 21.6614 22.8087C21.6827 22.7869 21.6994 22.761 21.7106 22.7326C21.7217 22.7042 21.7271 22.6738 21.7263 22.6433C21.6977 21.2769 21.4147 19.9476 20.883 18.6926ZM10.9777 12.1291C9.66562 12.1291 8.43068 11.6174 7.50161 10.6884C6.57254 9.7593 6.06084 8.52436 6.06084 7.21223C6.06084 5.9001 6.57254 4.66516 7.50161 3.73609C8.43068 2.80703 9.66562 2.29533 10.9777 2.29533C12.2899 2.29533 13.5248 2.80703 14.4539 3.73609C15.3829 4.66516 15.8947 5.9001 15.8947 7.21223C15.8947 8.52436 15.3829 9.7593 14.4539 10.6884C13.5248 11.6174 12.2899 12.1291 10.9777 12.1291Z" fill="#294391"/>
</g>
<defs>
<clipPath id="clip0_1_265">
<rect width="21.9545" height="23" fill="white"/>
</clipPath>
</defs>
</svg>
